<svg height='100px' width='100px'  fill="#ffffff" xmlns="http://www.w3.org/2000/svg" xmlns:xlink="http://www.w3.org/1999/xlink" version="1.1" x="0px" y="0px" viewBox="0 0 100 100" style="enable-background:new 0 0 100 100;" xml:space="preserve"><path d="M78.3,60L67.6,49.3C69,48.4,70,46.8,70,45c0-2.8-2.2-5-5-5c-2,0-3.8,1.2-4.6,2.9c-3-1.9-6.6-2.9-10.4-2.9  c-5.5,0-10,4.5-10,10c0,1.8,0.5,3.5,1.3,5H20v5h30l0,0H78.3z M62.5,50c1.4,0,2.5,1.1,2.5,2.5c0,1.4-1.1,2.5-2.5,2.5  c-1.4,0-2.5-1.1-2.5-2.5C60,51.1,61.1,50,62.5,50z"></path></svg>